{
	"asset":{
		"generator":"Khronos glTF Blender I/O v4.3.47",
		"version":"2.0"
	},
	"scene":0,
	"scenes":[
		{
			"name":"Scene",
			"nodes":[
				12
			]
		}
	],
	"nodes":[
		{
			"camera":0,
			"name":"Camera",
			"rotation":[
				-0.04612267389893532,
				-0.24867478013038635,
				-0.011855860240757465,
				0.9674156308174133
			],
			"translation":[
				-316.98388671875,
				256.97320556640625,
				1067.8968505859375
			]
		},
		{
			"camera":1,
			"name":"Camera.004",
			"rotation":[
				-0.08207093179225922,
				-0.19605261087417603,
				-0.016468754038214684,
				0.9770141839981079
			],
			"translation":[
				-23.192039489746094,
				370.3713073730469,
				805.3938598632812
			]
		},
		{
			"name":"Default Ambient Light",
			"translation":[
				0,
				1,
				0
			]
		},
		{
			"mesh":0,
			"name":"binance coin ",
			"rotation":[
				0,
				0,
				-0.7071068286895752,
				0.7071067094802856
			],
			"translation":[
				1.52587890625e-05,
				3.0517578125e-05,
				-19.415546417236328
			]
		},
		{
			"mesh":1,
			"name":"ring ",
			"rotation":[
				0,
				0,
				-0.7071068286895752,
				0.7071067094802856
			],
			"translation":[
				1.52587890625e-05,
				3.0517578125e-05,
				-20.376197814941406
			]
		},
		{
			"children":[
				3,
				4
			],
			"name":"solana ",
			"translation":[
				1.52587890625e-05,
				3.0517578125e-05,
				-0.6934127807617188
			]
		},
		{
			"mesh":2,
			"name":"line1",
			"translation":[
				1.9000242948532104,
				-234.1000213623047,
				-4.1961669921875e-05
			]
		},
		{
			"mesh":3,
			"name":"line2",
			"translation":[
				1.900039553642273,
				-7.492303848266602e-05,
				0.00997161865234375
			]
		},
		{
			"mesh":4,
			"name":"line3",
			"translation":[
				1.900009036064148,
				-116.30003356933594,
				0.01991128921508789
			]
		},
		{
			"children":[
				6,
				7,
				8
			],
			"name":"solana-sol-logo.001",
			"rotation":[
				-0.001980012049898505,
				0,
				0,
				1
			],
			"scale":[
				0.35190433263778687,
				0.35190433263778687,
				0.3519043028354645
			],
			"translation":[
				-70.77682495117188,
				52.838623046875,
				6.904079437255859
			]
		},
		{
			"children":[
				5,
				9
			],
			"name":"Solana ",
			"rotation":[
				0,
				-0.13052619993686676,
				0,
				0.9914449453353882
			],
			"scale":[
				0.6324761509895325,
				0.6324761509895325,
				0.6324761509895325
			],
			"translation":[
				90.22125244140625,
				268.56109619140625,
				357.52154541015625
			]
		},
		{
			"children":[
				0,
				1,
				2,
				10
			],
			"name":"Scene 1"
		},
		{
			"children":[
				11
			],
			"name":"Node_0",
			"scale":[
				0.009999999776482582,
				0.009999999776482582,
				0.009999999776482582
			]
		}
	],
	"cameras":[
		{
			"name":"Camera.003",
			"orthographic":{
				"xmag":5.009138107299805,
				"ymag":2.81764018535614,
				"zfar":100000,
				"znear":9.999999974752427e-07
			},
			"type":"orthographic"
		},
		{
			"name":"Camera.004",
			"orthographic":{
				"xmag":7.550472736358643,
				"ymag":4.2471409142017365,
				"zfar":100000,
				"znear":9.999999974752427e-07
			},
			"type":"orthographic"
		}
	],
	"materials":[
		{
			"doubleSided":true,
			"name":"Material.001",
			"pbrMetallicRoughness":{
				"baseColorFactor":[
					0,
					0,
					0,
					1
				],
				"metallicFactor":0,
				"roughnessFactor":0.5
			}
		},
		{
			"doubleSided":true,
			"name":"Material.002",
			"pbrMetallicRoughness":{
				"baseColorFactor":[
					0,
					0,
					0,
					1
				],
				"metallicFactor":0,
				"roughnessFactor":0.05909091234207153
			}
		},
		{
			"doubleSided":true,
			"name":"Material.007",
			"pbrMetallicRoughness":{
				"baseColorFactor":[
					0,
					1,
					0.2336493730545044,
					1
				],
				"metallicFactor":0,
				"roughnessFactor":0.5
			}
		},
		{
			"doubleSided":true,
			"name":"Material.003",
			"pbrMetallicRoughness":{
				"baseColorFactor":[
					1,
					0,
					0.9532148241996765,
					1
				],
				"metallicFactor":0,
				"roughnessFactor":0.5
			}
		},
		{
			"doubleSided":true,
			"name":"Material.005",
			"pbrMetallicRoughness":{
				"baseColorFactor":[
					0,
					8.846232231007889e-05,
					1,
					1
				],
				"metallicFactor":0,
				"roughnessFactor":0.5
			}
		}
	],
	"meshes":[
		{
			"name":"Mesh_4.001",
			"primitives":[
				{
					"attributes":{
						"POSITION":0,
						"NORMAL":1,
						"TEXCOORD_0":2
					},
					"indices":3,
					"material":0
				}
			]
		},
		{
			"name":"Mesh_3.001",
			"primitives":[
				{
					"attributes":{
						"POSITION":4,
						"NORMAL":5,
						"TEXCOORD_0":6
					},
					"indices":7,
					"material":1
				}
			]
		},
		{
			"name":"Mesh_0.001",
			"primitives":[
				{
					"attributes":{
						"POSITION":8,
						"NORMAL":9,
						"TEXCOORD_0":10
					},
					"indices":11,
					"material":2
				}
			]
		},
		{
			"name":"Mesh_1.001",
			"primitives":[
				{
					"attributes":{
						"POSITION":12,
						"NORMAL":13,
						"TEXCOORD_0":14
					},
					"indices":11,
					"material":3
				}
			]
		},
		{
			"name":"Mesh_2.001",
			"primitives":[
				{
					"attributes":{
						"POSITION":15,
						"NORMAL":16,
						"TEXCOORD_0":17
					},
					"indices":18,
					"material":4
				}
			]
		}
	],
	"accessors":[
		{
			"bufferView":0,
			"componentType":5126,
			"count":1770,
			"max":[
				110.58708190917969,
				110.58708190917969,
				28.752641677856445
			],
			"min":[
				-110.58708190917969,
				-110.58708190917969,
				0
			],
			"type":"VEC3"
		},
		{
			"bufferView":1,
			"componentType":5126,
			"count":1770,
			"type":"VEC3"
		},
		{
			"bufferView":2,
			"componentType":5126,
			"count":1770,
			"type":"VEC2"
		},
		{
			"bufferView":3,
			"componentType":5123,
			"count":8436,
			"type":"SCALAR"
		},
		{
			"bufferView":4,
			"componentType":5126,
			"count":3188,
			"max":[
				118.96940612792969,
				118.96940612792969,
				37
			],
			"min":[
				-118.96940612792969,
				-118.96940612792969,
				0
			],
			"type":"VEC3"
		},
		{
			"bufferView":5,
			"componentType":5126,
			"count":3188,
			"type":"VEC3"
		},
		{
			"bufferView":6,
			"componentType":5126,
			"count":3188,
			"type":"VEC2"
		},
		{
			"bufferView":7,
			"componentType":5123,
			"count":16896,
			"type":"SCALAR"
		},
		{
			"bufferView":8,
			"componentType":5126,
			"count":216,
			"max":[
				395.8185119628906,
				0,
				39
			],
			"min":[
				-1.9185185432434082,
				-77.5999984741211,
				0
			],
			"type":"VEC3"
		},
		{
			"bufferView":9,
			"componentType":5126,
			"count":216,
			"type":"VEC3"
		},
		{
			"bufferView":10,
			"componentType":5126,
			"count":216,
			"type":"VEC2"
		},
		{
			"bufferView":11,
			"componentType":5123,
			"count":612,
			"type":"SCALAR"
		},
		{
			"bufferView":12,
			"componentType":5126,
			"count":216,
			"max":[
				395.8185119628906,
				0,
				39
			],
			"min":[
				-1.9185185432434082,
				-77.5999984741211,
				0
			],
			"type":"VEC3"
		},
		{
			"bufferView":13,
			"componentType":5126,
			"count":216,
			"type":"VEC3"
		},
		{
			"bufferView":14,
			"componentType":5126,
			"count":216,
			"type":"VEC2"
		},
		{
			"bufferView":15,
			"componentType":5126,
			"count":216,
			"max":[
				395.8185119628906,
				0,
				39
			],
			"min":[
				-1.9185185432434082,
				-77.5999984741211,
				0
			],
			"type":"VEC3"
		},
		{
			"bufferView":16,
			"componentType":5126,
			"count":216,
			"type":"VEC3"
		},
		{
			"bufferView":17,
			"componentType":5126,
			"count":216,
			"type":"VEC2"
		},
		{
			"bufferView":18,
			"componentType":5123,
			"count":612,
			"type":"SCALAR"
		}
	],
	"bufferViews":[
		{
			"buffer":0,
			"byteLength":21240,
			"byteOffset":0,
			"target":34962
		},
		{
			"buffer":0,
			"byteLength":21240,
			"byteOffset":21240,
			"target":34962
		},
		{
			"buffer":0,
			"byteLength":14160,
			"byteOffset":42480,
			"target":34962
		},
		{
			"buffer":0,
			"byteLength":16872,
			"byteOffset":56640,
			"target":34963
		},
		{
			"buffer":0,
			"byteLength":38256,
			"byteOffset":73512,
			"target":34962
		},
		{
			"buffer":0,
			"byteLength":38256,
			"byteOffset":111768,
			"target":34962
		},
		{
			"buffer":0,
			"byteLength":25504,
			"byteOffset":150024,
			"target":34962
		},
		{
			"buffer":0,
			"byteLength":33792,
			"byteOffset":175528,
			"target":34963
		},
		{
			"buffer":0,
			"byteLength":2592,
			"byteOffset":209320,
			"target":34962
		},
		{
			"buffer":0,
			"byteLength":2592,
			"byteOffset":211912,
			"target":34962
		},
		{
			"buffer":0,
			"byteLength":1728,
			"byteOffset":214504,
			"target":34962
		},
		{
			"buffer":0,
			"byteLength":1224,
			"byteOffset":216232,
			"target":34963
		},
		{
			"buffer":0,
			"byteLength":2592,
			"byteOffset":217456,
			"target":34962
		},
		{
			"buffer":0,
			"byteLength":2592,
			"byteOffset":220048,
			"target":34962
		},
		{
			"buffer":0,
			"byteLength":1728,
			"byteOffset":222640,
			"target":34962
		},
		{
			"buffer":0,
			"byteLength":2592,
			"byteOffset":224368,
			"target":34962
		},
		{
			"buffer":0,
			"byteLength":2592,
			"byteOffset":226960,
			"target":34962
		},
		{
			"buffer":0,
			"byteLength":1728,
			"byteOffset":229552,
			"target":34962
		},
		{
			"buffer":0,
			"byteLength":1224,
			"byteOffset":231280,
			"target":34963
		}
	],
	"buffers":[
		{
			"byteLength":232504,
			"uri":"untitled.bin"
		}
	]
}
